<svg width="12" height="16" viewBox="0 0 12 16" fill="none" xmlns="http://www.w3.org/2000/svg">
<path id="Vector" d="M2.46512 7.03059C3.41348 9.39214 4.9414 11.3198 6.80519 12.5298L8.25407 10.6939C8.43189 10.4686 8.69532 10.3935 8.92582 10.4936C9.66344 10.8024 10.4603 10.9693 11.277 10.9693C11.6392 10.9693 11.9355 11.3448 11.9355 11.8038V14.7161C11.9355 15.175 11.6392 15.5505 11.277 15.5505C5.09287 15.5505 0.0810547 9.20022 0.0810547 1.36453C0.0810547 0.905572 0.377417 0.53006 0.739638 0.53006H3.04468C3.4069 0.53006 3.70326 0.905572 3.70326 1.36453C3.70326 2.40762 3.83498 3.40899 4.07865 4.34359C4.1511 4.63566 4.09841 4.9611 3.91401 5.19475L2.46512 7.03059Z" fill="#002B9A"/>
</svg>
