<svg width="17" height="18" viewBox="0 0 17 18" fill="none" xmlns="http://www.w3.org/2000/svg">
<g id="fePlus0">
<g id="fePlus1">
<path id="fePlus2" fill-rule="evenodd" clip-rule="evenodd" d="M9.6737 9.95829V16.3101C9.6737 16.5508 9.5781 16.7816 9.40792 16.9518C9.23775 17.122 9.00694 17.2176 8.76628 17.2176C8.52562 17.2176 8.29481 17.122 8.12464 16.9518C7.95446 16.7816 7.85886 16.5508 7.85886 16.3101V9.95829H1.50691C1.26625 9.95829 1.03544 9.86269 0.865265 9.69252C0.69509 9.52235 0.599487 9.29154 0.599487 9.05088C0.599487 8.81022 0.69509 8.57942 0.865265 8.40925C1.03544 8.23908 1.26625 8.14348 1.50691 8.14348H7.85886V1.79162C7.85886 1.55096 7.95446 1.32016 8.12464 1.14999C8.29481 0.979818 8.52562 0.884216 8.76628 0.884216C9.00694 0.884216 9.23775 0.979818 9.40792 1.14999C9.5781 1.32016 9.6737 1.55096 9.6737 1.79162V8.14348H16.0257C16.2663 8.14348 16.4971 8.23908 16.6673 8.40925C16.8375 8.57942 16.9331 8.81022 16.9331 9.05088C16.9331 9.29154 16.8375 9.52235 16.6673 9.69252C16.4971 9.86269 16.2663 9.95829 16.0257 9.95829H9.6737Z" fill="white"/>
</g>
</g>
</svg>
