<svg width="187" height="130" viewBox="0 0 187 130" fill="none" xmlns="http://www.w3.org/2000/svg">
<g id="design2">
<path id="Vector" d="M51.382 11.8249L28.428 0.524479C27.8913 0.257959 27.2882 0.118164 26.6751 0.118164C26.062 0.118164 25.4589 0.257959 24.9223 0.524479L1.96826 11.8249C1.3939 12.1074 0.914592 12.5237 0.580517 13.03C0.246441 13.5363 0.069886 14.114 0.0693359 14.7027V37.1346C0.069886 37.7233 0.246441 38.3011 0.580517 38.8074C0.914592 39.3137 1.3939 39.7299 1.96826 40.0125L24.9223 51.3129C25.4591 51.579 26.0621 51.7185 26.6751 51.7185C27.2881 51.7185 27.8911 51.579 28.428 51.3129L51.382 40.0125C51.9563 39.7299 52.4356 39.3137 52.7697 38.8074C53.1038 38.3011 53.2803 37.7233 53.2809 37.1346V14.7027C53.2803 14.114 53.1038 13.5363 52.7697 13.03C52.4356 12.5237 51.9563 12.1074 51.382 11.8249ZM50.1508 37.1346C50.1516 37.2177 50.1279 37.2994 50.0821 37.3715C50.0363 37.4437 49.97 37.5035 49.89 37.5451L26.936 48.8455C26.8592 48.8832 26.7731 48.903 26.6855 48.903C26.598 48.903 26.5119 48.8832 26.4351 48.8455L3.46027 37.5451C3.38027 37.5035 3.31397 37.4437 3.26814 37.3715C3.22231 37.2994 3.1986 37.2177 3.19943 37.1346V14.7027C3.1986 14.6197 3.22231 14.5379 3.26814 14.4658C3.31397 14.3937 3.38027 14.3338 3.46027 14.2923L26.4143 2.99189C26.491 2.95412 26.5772 2.93432 26.6647 2.93432C26.7522 2.93432 26.8383 2.95412 26.9151 2.99189L49.8691 14.2923C49.9491 14.3338 50.0154 14.3937 50.0612 14.4658C50.107 14.5379 50.1308 14.6197 50.1299 14.7027L50.1508 37.1346Z" fill="white" fill-opacity="0.5"/>
<path id="Vector_2" d="M104.594 11.8249L81.6395 0.524479C81.1028 0.257959 80.4998 0.118164 79.8867 0.118164C79.2736 0.118164 78.6705 0.257959 78.1338 0.524479L55.1798 11.8249C54.6054 12.1074 54.1261 12.5237 53.7921 13.03C53.458 13.5363 53.2814 14.114 53.2809 14.7027V37.1346C53.2814 37.7233 53.458 38.3011 53.7921 38.8074C54.1261 39.3137 54.6054 39.7299 55.1798 40.0125L78.1338 51.3129C78.6706 51.579 79.2737 51.7185 79.8867 51.7185C80.4997 51.7185 81.1027 51.579 81.6395 51.3129L104.594 40.0125C105.168 39.7299 105.647 39.3137 105.981 38.8074C106.315 38.3011 106.492 37.7233 106.492 37.1346V14.7027C106.492 14.114 106.315 13.5363 105.981 13.03C105.647 12.5237 105.168 12.1074 104.594 11.8249ZM103.362 37.1346C103.363 37.2177 103.339 37.2994 103.294 37.3715C103.248 37.4437 103.182 37.5035 103.102 37.5451L80.1475 48.8455C80.0707 48.8832 79.9846 48.903 79.8971 48.903C79.8096 48.903 79.7235 48.8832 79.6467 48.8455L56.6718 37.5451C56.5918 37.5035 56.5255 37.4437 56.4797 37.3715C56.4339 37.2994 56.4101 37.2177 56.411 37.1346V14.7027C56.4101 14.6197 56.4339 14.5379 56.4797 14.4658C56.5255 14.3937 56.5918 14.3338 56.6718 14.2923L79.6258 2.99189C79.7026 2.95412 79.7887 2.93432 79.8762 2.93432C79.9637 2.93432 80.0499 2.95412 80.1266 2.99189L103.081 14.2923C103.161 14.3338 103.227 14.3937 103.273 14.4658C103.319 14.5379 103.342 14.6197 103.341 14.7027L103.362 37.1346Z" fill="white" fill-opacity="0.5"/>
<path id="Vector_3" d="M77.9875 51.4625L55.0335 40.1621C54.4968 39.8956 53.8938 39.7558 53.2807 39.7558C52.6676 39.7558 52.0645 39.8956 51.5278 40.1621L28.5738 51.4625C27.9995 51.745 27.5202 52.1613 27.1861 52.6676C26.852 53.1739 26.6754 53.7516 26.6749 54.3403V76.7722C26.6754 77.3609 26.852 77.9387 27.1861 78.445C27.5202 78.9513 27.9995 79.3675 28.5738 79.6501L51.5278 90.9505C52.0647 91.2166 52.6677 91.3561 53.2807 91.3561C53.8937 91.3561 54.4967 91.2166 55.0335 90.9505L77.9875 79.6501C78.5619 79.3675 79.0412 78.9513 79.3753 78.445C79.7093 77.9387 79.8859 77.3609 79.8865 76.7722V54.3403C79.8859 53.7516 79.7093 53.1739 79.3753 52.6676C79.0412 52.1613 78.5619 51.745 77.9875 51.4625ZM76.7564 76.7722C76.7572 76.8553 76.7335 76.937 76.6876 77.0092C76.6418 77.0813 76.5755 77.1411 76.4955 77.1827L53.5415 88.4831C53.4647 88.5208 53.3786 88.5406 53.2911 88.5406C53.2036 88.5406 53.1175 88.5208 53.0407 88.4831L30.0658 77.1827C29.9858 77.1411 29.9195 77.0813 29.8737 77.0092C29.8279 76.937 29.8042 76.8553 29.805 76.7722V54.3403C29.8042 54.2573 29.8279 54.1755 29.8737 54.1034C29.9195 54.0313 29.9858 53.9714 30.0658 53.9299L53.0198 42.6295C53.0966 42.5917 53.1827 42.5719 53.2702 42.5719C53.3578 42.5719 53.4439 42.5917 53.5206 42.6295L76.4747 53.9299C76.5546 53.9714 76.6209 54.0313 76.6668 54.1034C76.7126 54.1755 76.7363 54.2573 76.7355 54.3403L76.7564 76.7722Z" fill="white" fill-opacity="0.5"/>
<path id="Vector_4" d="M104.594 89.2254L81.6395 77.925C81.1028 77.6585 80.4998 77.5187 79.8867 77.5187C79.2736 77.5187 78.6705 77.6585 78.1338 77.925L55.1798 89.2254C54.6054 89.508 54.1261 89.9242 53.7921 90.4305C53.458 90.9368 53.2814 91.5145 53.2809 92.1032V114.535C53.2814 115.124 53.458 115.702 53.7921 116.208C54.1261 116.714 54.6054 117.13 55.1798 117.413L78.1338 128.713C78.6706 128.979 79.2737 129.119 79.8867 129.119C80.4997 129.119 81.1027 128.979 81.6395 128.713L104.594 117.413C105.168 117.13 105.647 116.714 105.981 116.208C106.315 115.702 106.492 115.124 106.492 114.535V92.1032C106.492 91.5145 106.315 90.9368 105.981 90.4305C105.647 89.9242 105.168 89.508 104.594 89.2254ZM103.362 114.535C103.363 114.618 103.339 114.7 103.294 114.772C103.248 114.844 103.182 114.904 103.102 114.946L80.1475 126.246C80.0707 126.284 79.9846 126.304 79.8971 126.304C79.8096 126.304 79.7235 126.284 79.6467 126.246L56.6718 114.946C56.5918 114.904 56.5255 114.844 56.4797 114.772C56.4339 114.7 56.4101 114.618 56.411 114.535V92.1032C56.4101 92.0202 56.4339 91.9384 56.4797 91.8663C56.5255 91.7942 56.5918 91.7343 56.6718 91.6928L79.6258 80.3924C79.7026 80.3546 79.7887 80.3348 79.8762 80.3348C79.9637 80.3348 80.0499 80.3546 80.1266 80.3924L103.081 91.6928C103.161 91.7343 103.227 91.7942 103.273 91.8663C103.319 91.9384 103.342 92.0202 103.341 92.1032L103.362 114.535Z" fill="white" fill-opacity="0.5"/>
<path id="Vector_5" d="M157.805 88.5511L134.851 77.2507C134.314 76.9842 133.711 76.8444 133.098 76.8444C132.485 76.8444 131.882 76.9842 131.345 77.2507L108.391 88.5511C107.817 88.8337 107.337 89.2499 107.003 89.7562C106.669 90.2625 106.493 90.8402 106.492 91.429V113.861C106.493 114.45 106.669 115.027 107.003 115.534C107.337 116.04 107.817 116.456 108.391 116.739L131.345 128.039C131.882 128.305 132.485 128.445 133.098 128.445C133.711 128.445 134.314 128.305 134.851 128.039L157.805 116.739C158.379 116.456 158.858 116.04 159.192 115.534C159.526 115.027 159.703 114.45 159.704 113.861V91.429C159.703 90.8402 159.526 90.2625 159.192 89.7562C158.858 89.2499 158.379 88.8337 157.805 88.5511ZM156.573 113.861C156.574 113.944 156.551 114.026 156.505 114.098C156.459 114.17 156.393 114.23 156.313 114.271L133.359 125.572C133.282 125.609 133.196 125.629 133.108 125.629C133.021 125.629 132.935 125.609 132.858 125.572L109.883 114.271C109.803 114.23 109.737 114.17 109.691 114.098C109.645 114.026 109.621 113.944 109.622 113.861V91.429C109.621 91.3459 109.645 91.2641 109.691 91.192C109.737 91.1199 109.803 91.06 109.883 91.0185L132.837 79.7181C132.914 79.6803 133 79.6605 133.087 79.6605C133.175 79.6605 133.261 79.6803 133.338 79.7181L156.292 91.0185C156.372 91.06 156.438 91.1199 156.484 91.192C156.53 91.2641 156.553 91.3459 156.553 91.429L156.573 113.861Z" fill="white" fill-opacity="0.5"/>
<path id="Vector_6" d="M184.411 49.3596L161.457 38.0592C160.92 37.7927 160.317 37.6529 159.704 37.6529C159.091 37.6529 158.488 37.7927 157.951 38.0592L134.997 49.3596C134.423 49.6422 133.943 50.0584 133.609 50.5647C133.275 51.071 133.099 51.6488 133.098 52.2375V74.6694C133.099 75.2581 133.275 75.8358 133.609 76.3421C133.943 76.8484 134.423 77.2647 134.997 77.5472L157.951 88.8476C158.488 89.1137 159.091 89.2533 159.704 89.2533C160.317 89.2533 160.92 89.1137 161.457 88.8476L184.411 77.5472C184.985 77.2647 185.464 76.8484 185.798 76.3421C186.132 75.8358 186.309 75.2581 186.31 74.6694V52.2375C186.309 51.6488 186.132 51.071 185.798 50.5647C185.464 50.0584 184.985 49.6422 184.411 49.3596ZM183.179 74.6694C183.18 74.7524 183.157 74.8342 183.111 74.9063C183.065 74.9784 182.999 75.0383 182.919 75.0798L159.965 86.3802C159.888 86.418 159.802 86.4378 159.714 86.4378C159.627 86.4378 159.541 86.418 159.464 86.3802L136.489 75.0798C136.409 75.0383 136.343 74.9784 136.297 74.9063C136.251 74.8342 136.227 74.7524 136.228 74.6694V52.2375C136.227 52.1544 136.251 52.0727 136.297 52.0006C136.343 51.9284 136.409 51.8686 136.489 51.827L159.443 40.5267C159.52 40.4889 159.606 40.4691 159.693 40.4691C159.781 40.4691 159.867 40.4889 159.944 40.5267L182.898 51.827C182.978 51.8686 183.044 51.9284 183.09 52.0006C183.136 52.0727 183.159 52.1544 183.159 52.2375L183.179 74.6694Z" fill="white" fill-opacity="0.5"/>
</g>
</svg>
